# Blender 4.1.0
# www.blender.org
mtllib window.mtl
o Window
v 0.753779 -0.409139 -2.613327
v 0.620786 0.212091 -2.162070
v 0.430877 0.710395 -1.718765
v -0.647425 0.682199 -1.456155
v -0.430877 0.710396 -1.718765
v -0.000000 0.739048 -1.787793
v -0.620786 0.212091 -2.162070
v -0.753779 -0.409139 -2.613327
v -0.000000 -0.409694 -2.887440
v -1.100925 -0.298730 -1.975820
v 0.647425 0.682199 -1.456155
v 1.100925 -0.298730 -1.975820
v -0.964942 0.232419 -1.608021
v 0.000000 0.218766 -2.352462
v 0.964942 0.232419 -1.608021
v 0.692618 -0.087000 -2.386953
v 0.531167 0.472767 -1.939672
v -0.545463 0.722989 -1.572553
v -0.240159 0.723605 -1.781181
v 0.240159 0.723605 -1.781181
v -0.531167 0.472767 -1.939672
v -0.692618 -0.087000 -2.386953
v -0.406569 -0.409624 -2.818577
v 0.406569 -0.409624 -2.818577
v -0.990621 -0.394296 -2.295637
v 0.545463 0.722988 -1.572553
v 0.990621 -0.394296 -2.295637
v -0.800978 0.504729 -1.486461
v -0.818798 0.219004 -1.913809
v -1.079726 -0.065561 -1.758587
v -0.336327 0.215055 -2.307346
v 0.000000 0.489049 -2.072911
v 0.336327 0.215054 -2.307346
v -0.000000 -0.085322 -2.622734
v 0.818798 0.219004 -1.913809
v 0.800978 0.504729 -1.486461
v 1.079726 -0.065561 -1.758587
v -0.689074 0.485761 -1.736760
v -0.917553 -0.081939 -2.099696
v -0.373878 -0.086398 -2.564362
v -0.290673 0.480217 -2.045664
v 0.290673 0.480217 -2.045664
v 0.373878 -0.086398 -2.564362
v 0.917553 -0.081939 -2.099696
v 0.689074 0.485761 -1.736760
vn 0.5582 0.5471 -0.6238
vn 0.5067 0.6243 -0.5945
vn 0.4182 0.7102 -0.5664
vn -0.6735 0.6488 -0.3542
vn -0.4182 0.7102 -0.5664
vn -0.0000 0.7476 -0.6641
vn -0.5067 0.6243 -0.5945
vn -0.5582 0.5471 -0.6238
vn -0.0000 0.6292 -0.7772
vn -0.7991 0.4446 -0.4047
vn 0.6735 0.6488 -0.3542
vn 0.7991 0.4446 -0.4047
vn -0.7478 0.5439 -0.3806
vn -0.0000 0.6885 -0.7253
vn 0.7478 0.5439 -0.3806
vn 0.5463 0.5669 -0.6166
vn 0.4578 0.6834 -0.5687
vn -0.6039 0.6684 -0.4342
vn -0.1687 0.7398 -0.6513
vn 0.1687 0.7398 -0.6513
vn -0.4578 0.6834 -0.5687
vn -0.5463 0.5669 -0.6166
vn -0.2738 0.6093 -0.7441
vn 0.2738 0.6093 -0.7441
vn -0.7323 0.4794 -0.4837
vn 0.6039 0.6684 -0.4342
vn 0.7323 0.4794 -0.4837
vn -0.6980 0.6181 -0.3616
vn -0.6948 0.5658 -0.4439
vn -0.7856 0.4739 -0.3977
vn -0.2321 0.6736 -0.7017
vn -0.0000 0.7317 -0.6816
vn 0.2321 0.6736 -0.7017
vn -0.0000 0.6450 -0.7642
vn 0.6948 0.5658 -0.4439
vn 0.6980 0.6181 -0.3616
vn 0.7856 0.4739 -0.3977
vn -0.6439 0.6371 -0.4237
vn -0.7348 0.4962 -0.4624
vn -0.2609 0.6267 -0.7343
vn -0.1979 0.7206 -0.6645
vn 0.1979 0.7206 -0.6645
vn 0.2609 0.6267 -0.7343
vn 0.7348 0.4962 -0.4624
vn 0.6439 0.6371 -0.4237
vt 0.554179 0.689670
vt 0.597454 0.688802
vt 0.593462 0.724735
vt 0.555157 0.728553
vt 0.640728 0.687934
vt 0.632864 0.718967
vt 0.625000 0.750000
vt 0.590190 0.766055
vt 0.554071 0.771858
vt 0.485298 0.690104
vt 0.519739 0.689887
vt 0.519565 0.730229
vt 0.485298 0.730469
vt 0.519204 0.773909
vt 0.485298 0.770833
vt 0.518811 0.824227
vt 0.484991 0.824219
vt 0.553369 0.822508
vt 0.552908 0.878955
vt 0.518104 0.879618
vt 0.484685 0.877604
vt 0.588971 0.818515
vt 0.625000 0.812500
vt 0.625000 0.875000
vt 0.588687 0.877231
vt 0.588477 0.938172
vt 0.552265 0.938700
vt 0.625000 0.937500
vt 0.625000 1.000000
vt 0.588237 1.000000
vt 0.551473 1.000000
vt 0.516593 0.938932
vt 0.481316 0.938802
vt 0.514710 1.000000
vt 0.477947 1.000000
vt 0.477947 0.000000
vt 0.514710 0.000000
vt 0.516622 0.031250
vt 0.481316 0.031250
vt 0.551473 0.000000
vt 0.552218 0.031250
vt 0.552239 0.062500
vt 0.518462 0.062500
vt 0.484685 0.062500
vt 0.588237 0.000000
vt 0.588464 0.031250
vt 0.625000 0.000000
vt 0.625000 0.031250
vt 0.625000 0.062500
vt 0.588620 0.062500
s 1
f 13/1/13 28/2/28 38/3/38 29/4/29
f 28/2/28 4/5/4 18/6/18 38/3/38
f 38/3/38 18/6/18 5/7/5 21/8/21
f 29/4/29 38/3/38 21/8/21 7/9/7
f 10/10/10 30/11/30 39/12/39 25/13/25
f 30/11/30 13/1/13 29/4/29 39/12/39
f 39/12/39 29/4/29 7/9/7 22/14/22
f 25/13/25 39/12/39 22/14/22 8/15/8
f 8/15/8 22/14/22 40/16/40 23/17/23
f 22/14/22 7/9/7 31/18/31 40/16/40
f 40/16/40 31/18/31 14/19/14 34/20/34
f 23/17/23 40/16/40 34/20/34 9/21/9
f 7/9/7 21/8/21 41/22/41 31/18/31
f 21/8/21 5/7/5 19/23/19 41/22/41
f 41/22/41 19/23/19 6/24/6 32/25/32
f 31/18/31 41/22/41 32/25/32 14/19/14
f 14/19/14 32/25/32 42/26/42 33/27/33
f 32/25/32 6/24/6 20/28/20 42/26/42
f 42/26/42 20/28/20 3/29/3 17/30/17
f 33/27/33 42/26/42 17/30/17 2/31/2
f 9/21/9 34/20/34 43/32/43 24/33/24
f 34/20/34 14/19/14 33/27/33 43/32/43
f 43/32/43 33/27/33 2/31/2 16/34/16
f 24/33/24 43/32/43 16/34/16 1/35/1
f 1/36/1 16/37/16 44/38/44 27/39/27
f 16/37/16 2/40/2 35/41/35 44/38/44
f 44/38/44 35/41/35 15/42/15 37/43/37
f 27/39/27 44/38/44 37/43/37 12/44/12
f 2/40/2 17/45/17 45/46/45 35/41/35
f 17/45/17 3/47/3 26/48/26 45/46/45
f 45/46/45 26/48/26 11/49/11 36/50/36
f 35/41/35 45/46/45 36/50/36 15/42/15
